<svg width="77" height="108" viewBox="0 0 77 108" fill="none" xmlns="http://www.w3.org/2000/svg">
<path d="M16.8584 26.2925C14.8131 26.0672 12.9115 26.1137 11.1666 25.6138C7.07381 24.4417 4.37843 20.0157 4.68166 15.408C5.04852 9.83559 8.60994 6.34354 14.334 6.15832C16.0682 6.10253 17.8282 6.43579 19.5552 6.71827C20.3197 6.84342 20.776 6.70326 21.3352 6.16118C22.797 4.74376 24.2394 3.2534 25.9086 2.11275C30.9911 -1.35999 37.2114 -0.473216 41.2284 4.19596C42.2517 5.38596 43.1056 6.72185 44.1025 8.07919C44.6511 7.87466 45.2496 7.65583 45.8453 7.42913C51.3999 5.31731 56.7391 8.07204 58.2581 13.834C59.9852 20.3875 55.4712 26.2903 48.6766 26.2717C47.669 26.2689 47.3164 26.5893 47.3271 27.5061C47.3536 29.7981 47.2735 32.0987 47.438 34.3808C47.601 36.6428 47.365 37.2463 45.2024 37.9865C40.8308 39.4826 36.2925 39.8666 31.7134 39.8345C27.4225 39.8044 23.1924 39.2559 19.0611 38.0516C16.7118 37.3665 16.3864 36.8301 16.6918 34.4144C17.0422 31.6368 17.2289 28.8513 16.8577 26.2925H16.8584ZM19.6782 26.9983C20.5257 26.8524 21.3631 26.6629 22.2106 26.5764C22.9922 26.4963 23.2976 26.1487 23.1402 25.3807C22.5939 22.7153 22.0554 20.0478 21.5033 17.3832C21.416 16.9627 21.258 16.5579 21.1629 16.1389C21.0105 15.4738 21.2723 14.8895 21.9181 14.8344C22.3321 14.7994 22.8792 15.1505 23.1975 15.4881C23.495 15.8035 23.6287 16.3155 23.7317 16.7646C24.3467 19.4543 24.9224 22.1532 25.5374 24.8436C25.6246 25.2262 25.7584 25.7854 26.0294 25.9056C27.1429 26.3983 27.936 25.7719 27.8623 24.5518C27.8344 24.0863 27.7636 23.6228 27.7386 23.1573C27.6392 21.2936 27.5126 19.4307 27.4712 17.5656C27.4476 16.5222 28.2328 15.92 29.0588 16.3649C29.4235 16.5608 29.7181 17.1723 29.766 17.6242C30.0121 19.9413 30.1987 22.2662 30.3432 24.5919C30.4276 25.9449 31.3844 25.6825 32.2076 25.7211C33.1751 25.7661 32.8962 25.0145 32.9663 24.5068C33.2781 22.2319 33.5692 19.9549 33.8846 17.6807C33.9768 17.0171 34.3623 16.6202 35.0674 16.7332C35.7776 16.8469 36.1294 17.2838 36.0307 18.029C35.9928 18.3136 35.9585 18.599 35.932 18.885C35.7432 20.9218 35.5702 22.9599 35.3642 24.9952C35.2348 26.2725 36.2395 25.9406 36.8839 26.0887C37.5268 26.236 38.0138 26.1981 38.1919 25.322C38.5344 23.6379 39.0086 21.9802 39.4605 20.3196C39.5814 19.8748 39.7938 19.4478 40.0098 19.0366C40.3187 18.4481 40.8851 18.1327 41.4279 18.5074C41.7662 18.7413 41.95 19.3527 41.9922 19.814C42.0279 20.2088 41.734 20.6243 41.6374 21.0419C41.2742 22.6124 40.9016 24.1821 40.6091 25.7669C40.5569 26.0479 40.8 26.6086 41.0203 26.6779C42.2024 27.0491 43.421 27.3051 44.7312 27.6262C44.9443 26.6815 45.1052 25.877 45.3119 25.0853C45.5014 24.3587 45.6844 23.62 45.9841 22.9363C46.1128 22.6431 46.5247 22.3077 46.8179 22.2984C47.1376 22.2884 47.6897 22.578 47.7555 22.8348C48.0408 23.9525 48.9133 24.0448 49.6964 23.8674C50.9279 23.5892 52.2752 23.3118 53.2736 22.6073C57.2505 19.8026 57.2962 13.4671 53.4767 10.427C50.5067 8.06346 46.0957 8.73784 43.5233 11.9667C43.0713 12.5338 42.6286 13.0859 41.8384 12.6182C41.061 12.1584 41.0174 11.3674 41.4608 10.7453C42.1023 9.8456 41.8112 9.13832 41.2999 8.39386C40.6505 7.44844 40.0591 6.45009 39.3132 5.5862C37.3623 3.32921 34.8622 2.21358 31.8664 2.43528C27.9889 2.72205 25.2928 5.05485 22.9064 7.83962C22.7476 8.02484 22.7898 8.52258 22.9193 8.78647C23.2168 9.39506 23.3555 9.92641 22.7727 10.432C22.1741 10.9519 21.6492 10.6659 21.1228 10.2947C18.7235 8.60339 16.021 8.23795 13.204 8.62556C9.05333 9.19696 6.64044 12.3379 6.95153 16.6273C7.25546 20.8173 10.3299 23.8231 14.344 23.8167C15.0098 23.8159 15.775 23.8281 16.2992 23.5113C16.5552 23.3568 16.3106 22.4507 16.3907 21.8994C16.4358 21.589 16.6324 21.1156 16.8484 21.0605C17.1595 20.9811 17.6787 21.107 17.8789 21.3415C18.215 21.7349 18.441 22.2626 18.5869 22.7704C18.9795 24.1406 19.3049 25.5301 19.6789 26.999L19.6782 26.9983ZM44.3965 32.1388C44.6046 30.087 44.6146 30.0506 42.8939 29.6029C35.641 27.7178 28.3615 27.6048 21.0642 29.349C19.5073 29.7209 19.2484 30.2222 19.7576 31.9643C27.9467 29.5028 36.1544 29.7023 44.3965 32.1388Z" fill="#CD0000"/>
<path d="M61.984 74.6419C54.1039 73.9704 46.3746 77.7578 44.4873 78.842C52.0342 85.8232 64.1574 85.2246 70.9176 77.0069C64.3798 66.7045 49.2816 67.2731 43.4496 77.8028C43.4554 77.8093 43.4611 77.815 43.4675 77.8214C53.5775 71.496 61.9847 74.6419 61.9847 74.6419H61.984Z" fill="#1B763B"/>
<path d="M1.10734 42.1315H5.82444L8.09502 49.6484L11.4548 42.203H11.7809L15.1406 49.6277L17.4012 42.1315H22.1183L16.6388 58.6514H15.4367L11.5971 50.5338L7.7875 58.6514H6.59608L1.10663 42.1315H1.10734Z" fill="#F8C116"/>
<path d="M31.2156 56.6489H25.0861L24.2515 58.5083H19.4994L27.1142 41.9169H29.1782L36.803 58.5083H32.0409L31.2163 56.6489H31.2156ZM29.8311 53.4308L28.1512 49.5411L26.4613 53.4308H29.8311Z" fill="#F8C116"/>
<path d="M38.724 51.4784L33.6221 42.1322H38.6002L40.9102 46.8972L43.2094 42.1322H48.1975L43.0856 51.4784V58.5805H38.7233V51.4784H38.724Z" fill="#F8C116"/>
<path d="M48.9176 55.7679L51.5551 53.1812C52.2373 54.1895 53.5103 54.8003 54.8848 54.8003C55.8116 54.8003 56.7177 54.4641 56.7177 53.7926C56.7177 52.9473 55.0378 52.2043 53.4294 51.4913C51.352 50.5952 49.5705 49.2307 49.5705 46.757C49.5705 43.9165 52.2688 41.8898 55.3847 41.8898C57.8891 41.8898 59.8443 43.0712 60.4858 44.6903L57.9706 47.1132C57.4815 46.2479 56.2192 45.871 55.4354 45.871C54.5394 45.871 53.8979 46.3294 53.8979 46.8893C53.8979 47.6431 55.0585 47.887 56.8307 48.6307C59.3966 49.7099 61.0965 51.2782 61.0965 53.7011C61.0965 56.827 58.1844 58.7715 54.8955 58.7715C52.1973 58.7715 49.7436 57.58 48.9183 55.7679H48.9176Z" fill="#F8C116"/>
<path d="M61.8145 74.7234C54.1997 74.0748 46.7307 77.7342 44.9071 78.7819C52.1994 85.5278 63.9142 84.9493 70.4463 77.0083C64.1288 67.0528 49.5398 67.6028 43.9045 77.7778C43.9102 77.7843 43.9159 77.79 43.9216 77.7957C53.6912 71.6834 61.8145 74.7234 61.8145 74.7234Z" fill="#1B763B"/>
<path d="M1.10734 42.1315H5.82444L8.09502 49.6484L11.4548 42.203H11.7809L15.1406 49.6277L17.4012 42.1315H22.1183L16.6388 58.6514H15.4367L11.5971 50.5338L7.7875 58.6514H6.59608L1.10663 42.1315H1.10734Z" fill="#F8C116"/>
<path d="M31.2156 56.6489H25.0861L24.2515 58.5083H19.4994L27.1142 41.9169H29.1782L36.803 58.5083H32.0409L31.2163 56.6489H31.2156ZM29.8311 53.4308L28.1512 49.5411L26.4613 53.4308H29.8311Z" fill="#F8C116"/>
<path d="M38.724 51.4784L33.6221 42.1322H38.6002L40.9102 46.8972L43.2094 42.1322H48.1975L43.0856 51.4784V58.5805H38.7233V51.4784H38.724Z" fill="#F8C116"/>
<path d="M48.9176 55.7679L51.5551 53.1812C52.2373 54.1895 53.5103 54.8003 54.8848 54.8003C55.8116 54.8003 56.7177 54.4641 56.7177 53.7926C56.7177 52.9473 55.0378 52.2043 53.4294 51.4913C51.352 50.5952 49.5705 49.2307 49.5705 46.757C49.5705 43.9165 52.2688 41.8898 55.3847 41.8898C57.8891 41.8898 59.8443 43.0712 60.4858 44.6903L57.9706 47.1132C57.4815 46.2479 56.2192 45.871 55.4354 45.871C54.5394 45.871 53.8979 46.3294 53.8979 46.8893C53.8979 47.6431 55.0585 47.887 56.8307 48.6307C59.3966 49.7099 61.0965 51.2782 61.0965 53.7011C61.0965 56.827 58.1844 58.7715 54.8955 58.7715C52.1973 58.7715 49.7436 57.58 48.9183 55.7679H48.9176Z" fill="#F8C116"/>
<path d="M9.83212 88.9019V91.6194H15.0527V95.2667H9.83212V101.274H5.54126V84.8256H16.1969V88.9019H9.83212Z" fill="#CD0000"/>
<path d="M16.9707 93.1055C16.9707 88.1774 20.8804 84.4408 25.9815 84.4408C31.0826 84.4408 34.9923 88.1774 34.9923 93.1055C34.9923 98.0336 31.0826 101.709 25.9708 101.709C20.8589 101.709 16.97 97.9928 16.97 93.1055H16.9707ZM30.5842 93.0748C30.5842 90.5396 28.5882 88.5844 25.9822 88.5844C23.3762 88.5844 21.3803 90.5396 21.3803 93.0748C21.3803 95.6099 23.3762 97.5444 25.9822 97.5444C28.5882 97.5444 30.5842 95.5999 30.5842 93.0748Z" fill="#CD0000"/>
<path d="M36.4154 93.1055C36.4154 88.1774 40.3251 84.4408 45.4263 84.4408C50.5274 84.4408 54.4371 88.1774 54.4371 93.1055C54.4371 98.0336 50.5274 101.709 45.4155 101.709C40.3037 101.709 36.4147 97.9928 36.4147 93.1055H36.4154ZM50.0289 93.0748C50.0289 90.5396 48.033 88.5844 45.427 88.5844C42.821 88.5844 40.825 90.5396 40.825 93.0748C40.825 95.6099 42.821 97.5444 45.427 97.5444C48.033 97.5444 50.0289 95.5999 50.0289 93.0748Z" fill="#CD0000"/>
<path d="M70.9254 93.1005C70.9254 98.183 67.5199 101.274 61.9497 101.274H56.6025V84.8971L61.9497 84.8871C67.5206 84.867 70.9254 87.9772 70.9254 93.1005ZM66.5445 93.1105C66.5445 90.5388 64.7552 88.9734 61.8174 88.9734H60.8212V97.1975H61.8581C64.7659 97.1975 66.5445 95.6521 66.5445 93.1105Z" fill="#CD0000"/>
<path d="M19.2727 75.4729C19.2727 71.6047 22.3414 68.6719 26.3455 68.6719C30.3496 68.6719 33.4176 71.6047 33.4176 75.4729C33.4176 79.3411 30.3489 82.226 26.3369 82.226C22.325 82.226 19.272 79.309 19.272 75.4729H19.2727ZM29.9577 75.4493C29.9577 73.4591 28.3915 71.9251 26.3455 71.9251C24.2995 71.9251 22.7333 73.4598 22.7333 75.4493C22.7333 77.4389 24.2995 78.9578 26.3455 78.9578C28.3915 78.9578 29.9577 77.4317 29.9577 75.4493Z" fill="#F8C116"/>
<path d="M38.4379 72.1675V74.313H42.5857V77.1735H38.4379V81.8935H35.0767V68.9494H43.4439V72.1675H38.4379Z" fill="#F8C116"/>
<path d="M71.7193 58.3102C71.7937 58.3102 76.9205 56.2556 76.9205 56.2556L73.1818 52.1277L72.9415 53.7011C72.9415 53.7011 66.8921 51.0278 61.1666 51.2252C61.1666 51.2252 62.1778 52.9037 60.8212 56.729C60.8212 56.7533 64.0258 56.601 64.0258 56.601C64.0258 56.601 65.5562 57.3018 64.4205 59.0003C64.3962 58.9953 62.8901 61.3645 58.67 62.1047C58.7072 62.1047 55.5971 63.0673 50.8957 62.8449C51.0066 62.8821 44.6389 62.4744 42.5293 61.9567C42.5664 61.8823 33.015 59.9579 31.6083 59.8098C31.6827 59.8098 22.5753 58.8201 18.0956 59.0003C18.17 59.0325 10.2469 59.1805 7.02664 60.7352C7.02664 60.8096 1.47355 62.4008 0.0296702 67.2881C0.0668577 67.3625 -1.121 73.7666 8.39328 76.2839C8.39328 76.2839 9.36802 83.0241 6.60041 84.8234C7.091 84.9443 13.9285 84.8184 13.9285 84.8184C13.9285 84.8184 18.7908 72.0559 10.6338 70.4512C10.6267 70.449 10.6188 70.4483 10.6117 70.4469C10.6167 70.449 10.6202 70.4504 10.6238 70.4512H10.4851C10.5273 70.4397 10.5695 70.439 10.6117 70.4469C10.282 70.3131 6.36728 67.5648 11.3583 65.1405C11.4691 65.1033 20.9834 61.9567 32.5344 64.6964C32.6824 64.474 44.6032 67.5098 44.6032 67.5098C44.6032 67.5098 54.5251 69.8054 62.077 66.9176C62.077 66.8433 70.5915 64.8544 72.8127 59.0003C72.7384 58.9209 70.9984 59.3471 71.7207 58.3102H71.7193Z" fill="#F8C116"/>
<path d="M10.0853 75.0796C10.0495 75.0796 10.0138 75.0667 9.98588 75.0403C9.2693 74.3666 8.65571 73.9783 8.64999 73.9747C8.58205 73.9318 8.56131 73.8424 8.60422 73.7745C8.64641 73.7072 8.73652 73.6865 8.80374 73.7287C8.82949 73.7451 9.44523 74.1342 10.1847 74.8286C10.2433 74.8837 10.2462 74.9752 10.1911 75.0338C10.1625 75.0646 10.1239 75.0796 10.0853 75.0796Z" fill="black"/>
<path d="M12.476 80.0184C12.476 80.0184 12.471 80.0184 12.4681 80.0184C12.388 80.0141 12.3265 79.9454 12.3308 79.866C12.3351 79.7838 12.3373 79.7023 12.3373 79.6207C12.3373 78.8234 12.1234 78.0152 11.7008 77.22C11.6629 77.1492 11.6901 77.0612 11.7609 77.0241C11.8309 76.9862 11.9189 77.0133 11.9568 77.0841C12.4016 77.9216 12.6276 78.7754 12.6276 79.6207C12.6276 79.7073 12.6255 79.7938 12.6205 79.8811C12.6162 79.9583 12.5525 80.0184 12.476 80.0184Z" fill="black"/>
<path d="M10.4615 84.0175C10.425 84.0175 10.3886 84.0039 10.3599 83.976C10.3027 83.9202 10.3013 83.8279 10.3578 83.7707C10.7833 83.3345 11.1459 82.8875 11.4348 82.442C11.4791 82.3748 11.5693 82.3555 11.6358 82.3991C11.703 82.4427 11.7216 82.5328 11.6787 82.5993C11.379 83.0606 11.005 83.5233 10.5659 83.9724C10.5373 84.0017 10.5001 84.016 10.4622 84.016L10.4615 84.0175Z" fill="black"/>
<path d="M6.47022 64.0099C6.42803 64.0099 6.38655 63.992 6.35794 63.957C6.30717 63.8947 6.31646 63.8039 6.37797 63.7531C6.39656 63.7381 6.84496 63.3741 7.9427 62.9114C8.01636 62.8814 8.10146 62.915 8.13293 62.9886C8.1644 63.0623 8.12935 63.1474 8.05569 63.1789C7.003 63.6223 6.56677 63.9741 6.56176 63.9777C6.53458 63.9999 6.5024 64.0106 6.47022 64.0106V64.0099Z" fill="black"/>
<path d="M52.3989 65.2335C52.0664 65.2335 51.7346 65.2299 51.402 65.222C51.3219 65.2199 51.2583 65.1541 51.2604 65.074C51.2626 64.9939 51.3326 64.9381 51.4085 64.9324C52.5534 64.9582 53.7034 64.9388 54.7775 64.8738C54.8647 64.8695 54.9262 64.9303 54.9312 65.0096C54.9363 65.0897 54.8755 65.1584 54.7954 65.1634C54.0244 65.2099 53.2185 65.2342 52.3989 65.2342V65.2335ZM48.028 65.0332C48.0237 65.0332 48.0194 65.0332 48.0151 65.0332C46.9266 64.9381 45.7931 64.8073 44.646 64.6449C44.5667 64.6335 44.5116 64.5605 44.523 64.4812C44.5345 64.4018 44.6074 64.3467 44.6868 64.3581C45.8289 64.5205 46.9574 64.6499 48.0408 64.745C48.1202 64.7522 48.1796 64.8223 48.1724 64.9024C48.166 64.9782 48.1023 65.0347 48.028 65.0347V65.0332ZM58.1451 64.7822C58.0757 64.7822 58.0142 64.7329 58.0021 64.6621C57.9885 64.5834 58.0414 64.5083 58.1208 64.4947C59.2836 64.2938 60.3799 64.0227 61.379 63.6881C61.4548 63.663 61.537 63.7038 61.5628 63.7796C61.5878 63.8554 61.5471 63.9376 61.4712 63.9634C60.4579 64.3024 59.3473 64.5777 58.1701 64.7808C58.1623 64.7822 58.1537 64.7829 58.1451 64.7829V64.7822ZM41.3285 64.0928C41.3192 64.0928 41.3106 64.0921 41.3013 64.09C40.2036 63.8826 39.0872 63.6466 37.9838 63.3898C37.9058 63.372 37.8572 63.294 37.8751 63.2161C37.8937 63.1381 37.9716 63.0895 38.0496 63.1081C39.1487 63.3641 40.2615 63.5987 41.3557 63.8053C41.4343 63.8204 41.4865 63.8962 41.4715 63.9748C41.4586 64.0442 41.3979 64.0928 41.3292 64.0928H41.3285ZM34.7356 62.5553C34.7227 62.5553 34.7098 62.5538 34.6962 62.5496C33.8474 62.3114 33.3132 62.1426 33.2266 62.114C32.6252 62.0389 32.0102 61.9638 31.4087 61.8952C31.3293 61.8859 31.2721 61.8144 31.2807 61.735C31.29 61.6549 31.3637 61.597 31.4416 61.6077C32.0445 61.6764 32.6609 61.7514 33.291 61.833C33.404 61.868 33.931 62.0339 34.7742 62.2706C34.8514 62.2921 34.8965 62.3722 34.875 62.4494C34.8572 62.5131 34.7985 62.5553 34.7356 62.5553ZM11.2252 62.1898C11.1587 62.1898 11.0994 62.1441 11.0836 62.0768C11.0657 61.9989 11.1151 61.9209 11.1923 61.9031C12.2178 61.6699 13.3435 61.4768 14.5392 61.3302C14.6157 61.3188 14.6908 61.3767 14.7008 61.4561C14.7108 61.5355 14.6543 61.6077 14.5742 61.6177C13.3885 61.7636 12.2729 61.9545 11.2574 62.1855C11.2467 62.1884 11.2359 62.1891 11.2252 62.1891V62.1898ZM28.0611 61.5634C28.0569 61.5634 28.0533 61.5634 28.049 61.5634C26.9012 61.4683 25.7677 61.3939 24.6799 61.3424C24.5998 61.3388 24.5383 61.2709 24.5419 61.1908C24.5455 61.1107 24.617 61.0499 24.6935 61.0528C25.7848 61.1035 26.9219 61.1786 28.0733 61.2744C28.1534 61.2809 28.2127 61.351 28.2056 61.4311C28.1992 61.5069 28.1362 61.5641 28.0611 61.5641V61.5634ZM17.9512 61.3023C17.8675 61.3023 17.7995 61.2294 17.8095 61.1421C17.8174 61.0713 17.8818 61.0206 17.9526 61.017C18.9445 60.9662 19.9893 60.9412 21.0577 60.9412H21.2737C21.3374 60.9412 21.3989 60.9791 21.4167 61.0399C21.4468 61.1378 21.3738 61.2273 21.2809 61.2273H21.0577C19.9907 61.2273 18.9481 61.2523 17.9583 61.3031C17.9554 61.3031 17.9533 61.3031 17.9512 61.3031V61.3023Z" fill="black"/>
<path d="M64.4934 62.5875C64.4441 62.5875 64.3954 62.5624 64.369 62.5167C64.3282 62.448 64.3511 62.3586 64.4197 62.3179C64.9211 62.0204 65.3973 61.6928 65.835 61.3452L65.9072 61.2873L65.9644 61.3159C66.1118 61.2981 66.7282 61.0728 67.291 60.4856C67.3468 60.4277 67.4384 60.4263 67.4963 60.4814C67.5542 60.5364 67.5564 60.6287 67.5006 60.6866C66.9506 61.2601 66.2763 61.5762 65.978 61.6013C65.5404 61.9467 65.0655 62.2714 64.5671 62.5674C64.5442 62.581 64.5184 62.5875 64.4934 62.5875Z" fill="black"/>
<path d="M68.4153 58.3731C68.411 58.3731 68.4067 58.3731 68.4024 58.3731C68.3223 58.366 68.2636 58.2959 68.2701 58.2165C68.3151 57.698 68.2751 57.1295 68.1521 56.5266C68.1364 56.448 68.1871 56.3714 68.2651 56.3557C68.3416 56.34 68.4203 56.39 68.436 56.4687C68.564 57.0987 68.6055 57.6945 68.5583 58.2408C68.5519 58.3166 68.4882 58.3731 68.4138 58.3731H68.4153Z" fill="black"/>
<path d="M64.1745 54.3533C64.1688 54.3533 64.1638 54.3533 64.1581 54.3526C63.1125 54.2346 62.4296 54.1616 62.4296 54.1616C62.3502 54.153 62.2922 54.0815 62.3008 54.0021C62.3094 53.922 62.3816 53.8648 62.4603 53.8734C62.4603 53.8734 63.144 53.9464 64.1902 54.0644C64.2696 54.0737 64.3268 54.1452 64.3182 54.2245C64.3097 54.2989 64.2474 54.3533 64.1745 54.3533Z" fill="black"/>
<path d="M70.1938 55.0806C70.1874 55.0806 70.1809 55.0806 70.1745 55.0791C69.1898 54.949 68.1528 54.8203 67.168 54.7023C67.0887 54.693 67.0322 54.6207 67.0415 54.5406C67.0508 54.4612 67.1259 54.4062 67.2024 54.414C68.1878 54.5328 69.2269 54.6615 70.2124 54.7916C70.2918 54.8024 70.3476 54.8746 70.3376 54.9547C70.3283 55.0276 70.2653 55.0806 70.1938 55.0806Z" fill="black"/>
<path d="M74.8845 55.9015C74.8559 55.9015 74.8273 55.8937 74.803 55.8765C74.7486 55.8393 74.4819 55.7299 73.1689 55.5125C73.0902 55.4996 73.0366 55.4245 73.0495 55.3459C73.0623 55.2665 73.136 55.2129 73.2161 55.2264C74.5613 55.4496 74.858 55.5633 74.966 55.6369C75.0318 55.682 75.049 55.7721 75.0039 55.8386C74.9753 55.8794 74.9303 55.9015 74.8838 55.9015H74.8845Z" fill="black"/>
<path d="M8.24664 73.1537C8.22804 73.1537 8.20945 73.1501 8.19157 73.143C8.16296 73.1308 7.47357 72.8455 6.65115 72.2755C6.58536 72.2298 6.56891 72.1396 6.61468 72.0738C6.65973 72.0081 6.75055 71.9916 6.81635 72.0374C7.61159 72.588 8.29598 72.872 8.30242 72.8748C8.37608 72.9056 8.41183 72.9899 8.38108 73.0643C8.3582 73.1201 8.30385 73.1544 8.24735 73.1544L8.24664 73.1537Z" fill="black"/>
<path d="M4.11886 68.2721C4.04091 68.2721 3.97727 68.2106 3.97369 68.1327C3.95081 67.5606 4.04735 66.9677 4.25975 66.3698C4.28621 66.294 4.36988 66.2554 4.44497 66.2819C4.52006 66.3091 4.55939 66.3913 4.53293 66.4671C4.33269 67.0299 4.24258 67.5863 4.26332 68.1205C4.26618 68.2006 4.20396 68.2678 4.12387 68.2714C4.12172 68.2714 4.11958 68.2714 4.11815 68.2714L4.11886 68.2721Z" fill="black"/>
<path d="M68.0212 102.561H7.91624C6.54296 102.561 5.42969 103.674 5.42969 105.048V105.224C5.42969 106.597 6.54296 107.71 7.91624 107.71H68.0212C69.3945 107.71 70.5078 106.597 70.5078 105.224V105.048C70.5078 103.674 69.3945 102.561 68.0212 102.561Z" fill="#F8C116"/>
<path d="M56.4556 104.677V105.841C56.4556 105.955 56.4773 106.034 56.5208 106.077C56.5643 106.121 56.6409 106.143 56.7508 106.143H56.9705V106.349H56.713C56.5437 106.349 56.4178 106.31 56.3354 106.232C56.253 106.152 56.2119 106.021 56.2119 105.841V104.677H55.951V104.474H56.2119V104.004H56.4556V104.474H56.9705V104.677H56.4556Z" fill="#CD0000"/>
<path d="M53.717 105.408C53.717 105.216 53.7547 105.048 53.8302 104.903C53.908 104.757 54.0145 104.645 54.1495 104.567C54.2868 104.487 54.4413 104.447 54.6129 104.447C54.7914 104.447 54.9447 104.488 55.0729 104.57C55.2033 104.653 55.2971 104.758 55.3544 104.886V104.474H55.5946V106.349H55.3544V105.933C55.2948 106.061 55.1999 106.168 55.0694 106.252C54.9413 106.335 54.788 106.376 54.6095 106.376C54.4401 106.376 54.2868 106.336 54.1495 106.256C54.0145 106.176 53.908 106.063 53.8302 105.916C53.7547 105.77 53.717 105.6 53.717 105.408ZM55.3544 105.411C55.3544 105.26 55.3235 105.128 55.2617 105.013C55.1999 104.899 55.1152 104.811 55.0076 104.749C54.9024 104.687 54.7857 104.656 54.6575 104.656C54.5248 104.656 54.4058 104.686 54.3005 104.746C54.1952 104.805 54.1117 104.892 54.0499 105.006C53.9904 105.119 53.9607 105.252 53.9607 105.408C53.9607 105.561 53.9904 105.696 54.0499 105.813C54.1117 105.928 54.1952 106.016 54.3005 106.077C54.4058 106.137 54.5248 106.167 54.6575 106.167C54.7857 106.167 54.9024 106.136 55.0076 106.074C55.1152 106.012 55.1999 105.924 55.2617 105.81C55.3235 105.695 55.3544 105.563 55.3544 105.411Z" fill="#CD0000"/>
<path d="M52.3407 104.145V105.041H53.2504V105.24H52.3407V106.149H53.3533V106.349H52.1004V103.946H53.3533V104.145H52.3407Z" fill="#CD0000"/>
<path d="M50.5174 106.349L50.1913 106.016C50.0745 106.144 49.9498 106.239 49.8171 106.301C49.6844 106.36 49.5345 106.39 49.3674 106.39C49.2072 106.39 49.0653 106.36 48.9418 106.301C48.8182 106.239 48.7221 106.153 48.6534 106.043C48.5848 105.933 48.5504 105.806 48.5504 105.662C48.5504 105.493 48.5985 105.345 48.6946 105.219C48.7907 105.093 48.9315 104.995 49.1168 104.924C49.0367 104.835 48.9784 104.752 48.9418 104.677C48.9051 104.599 48.8868 104.516 48.8868 104.426C48.8868 104.273 48.9418 104.149 49.0516 104.056C49.1615 103.959 49.3079 103.911 49.491 103.911C49.6626 103.911 49.8022 103.961 49.9098 104.059C50.0173 104.157 50.0677 104.286 50.0608 104.443H49.8205C49.8228 104.34 49.7908 104.259 49.7244 104.2C49.6603 104.14 49.5791 104.11 49.4807 104.11C49.3754 104.11 49.2896 104.14 49.2232 104.2C49.1592 104.257 49.1271 104.331 49.1271 104.423C49.1271 104.496 49.1466 104.567 49.1855 104.636C49.2267 104.704 49.2908 104.786 49.3777 104.879L50.1672 105.679C50.1993 105.636 50.2428 105.567 50.2977 105.473L50.5174 105.106H50.7748L50.5139 105.556C50.4521 105.663 50.3904 105.759 50.3286 105.844L50.8297 106.349H50.5174ZM49.3674 106.18C49.5024 106.18 49.6226 106.154 49.7278 106.101C49.8354 106.049 49.9372 105.966 50.0334 105.854L49.2679 105.078C48.9498 105.195 48.7907 105.387 48.7907 105.655C48.7907 105.756 48.8148 105.846 48.8628 105.926C48.9132 106.004 48.9818 106.066 49.0688 106.112C49.1557 106.158 49.2553 106.18 49.3674 106.18Z" fill="#CD0000"/>
<path d="M47.3096 105.315C47.3096 105.398 47.3073 105.461 47.3027 105.504H45.7477C45.7546 105.646 45.7889 105.767 45.8507 105.868C45.9125 105.969 45.9937 106.045 46.0944 106.098C46.1951 106.148 46.3049 106.174 46.4239 106.174C46.5795 106.174 46.71 106.136 46.8153 106.06C46.9228 105.985 46.9938 105.883 47.0281 105.755H47.2821C47.2363 105.938 47.1379 106.088 46.9869 106.204C46.8381 106.319 46.6505 106.376 46.4239 106.376C46.2477 106.376 46.0898 106.337 45.9502 106.259C45.8106 106.179 45.7008 106.067 45.6207 105.923C45.5429 105.776 45.504 105.606 45.504 105.411C45.504 105.217 45.5429 105.046 45.6207 104.9C45.6985 104.754 45.8072 104.641 45.9468 104.564C46.0864 104.486 46.2454 104.447 46.4239 104.447C46.6024 104.447 46.758 104.486 46.8908 104.564C47.0258 104.641 47.1288 104.747 47.1997 104.879C47.273 105.01 47.3096 105.155 47.3096 105.315ZM47.0658 105.308C47.0681 105.169 47.0395 105.05 46.98 104.951C46.9228 104.853 46.8439 104.779 46.7432 104.728C46.6425 104.678 46.5326 104.653 46.4136 104.653C46.2351 104.653 46.083 104.71 45.9571 104.824C45.8312 104.939 45.7614 105.1 45.7477 105.308H47.0658Z" fill="#CD0000"/>
<path d="M43.5343 104.89C43.5961 104.759 43.691 104.653 43.8192 104.57C43.9496 104.488 44.103 104.447 44.2792 104.447C44.4508 104.447 44.6041 104.487 44.7392 104.567C44.8742 104.645 44.9794 104.757 45.055 104.903C45.1328 105.048 45.1717 105.216 45.1717 105.408C45.1717 105.6 45.1328 105.77 45.055 105.916C44.9794 106.063 44.873 106.176 44.7357 106.256C44.6007 106.336 44.4485 106.376 44.2792 106.376C44.1007 106.376 43.9462 106.336 43.8158 106.256C43.6876 106.174 43.5938 106.067 43.5343 105.937V106.349H43.2974V103.808H43.5343V104.89ZM44.9279 105.408C44.9279 105.252 44.8971 105.119 44.8353 105.006C44.7758 104.892 44.6934 104.805 44.5881 104.746C44.4828 104.686 44.3638 104.656 44.2311 104.656C44.103 104.656 43.9851 104.687 43.8775 104.749C43.7723 104.811 43.6887 104.899 43.627 105.013C43.5652 105.128 43.5343 105.26 43.5343 105.411C43.5343 105.563 43.5652 105.695 43.627 105.81C43.6887 105.924 43.7723 106.012 43.8775 106.074C43.9851 106.136 44.103 106.167 44.2311 106.167C44.3638 106.167 44.4828 106.137 44.5881 106.077C44.6934 106.016 44.7758 105.928 44.8353 105.813C44.8971 105.696 44.9279 105.561 44.9279 105.408Z" fill="#CD0000"/>
<path d="M42.6331 104.121C42.5851 104.121 42.5439 104.104 42.5096 104.069C42.4752 104.035 42.4581 103.993 42.4581 103.942C42.4581 103.892 42.4752 103.851 42.5096 103.819C42.5439 103.784 42.5851 103.767 42.6331 103.767C42.6812 103.767 42.7224 103.784 42.7567 103.819C42.791 103.851 42.8082 103.892 42.8082 103.942C42.8082 103.993 42.791 104.035 42.7567 104.069C42.7224 104.104 42.6812 104.121 42.6331 104.121ZM42.7533 104.474V106.349H42.513V104.474H42.7533Z" fill="#CD0000"/>
<path d="M41.5096 104.807C41.5622 104.691 41.6423 104.6 41.7499 104.536C41.8597 104.472 41.9936 104.44 42.1515 104.44V104.691H42.0863C41.9124 104.691 41.7728 104.738 41.6675 104.831C41.5622 104.925 41.5096 105.082 41.5096 105.302V106.349H41.2693V104.474H41.5096V104.807Z" fill="#CD0000"/>
<path d="M39.0543 105.411C39.0543 105.217 39.0932 105.048 39.171 104.903C39.2488 104.757 39.3563 104.645 39.4936 104.567C39.631 104.487 39.7877 104.447 39.9639 104.447C40.1951 104.447 40.385 104.504 40.5338 104.619C40.6848 104.733 40.7821 104.889 40.8255 105.085H40.5681C40.536 104.95 40.4662 104.845 40.3587 104.77C40.2534 104.692 40.1218 104.653 39.9639 104.653C39.8381 104.653 39.7248 104.681 39.6241 104.739C39.5234 104.796 39.4433 104.882 39.3838 104.996C39.3266 105.108 39.298 105.247 39.298 105.411C39.298 105.576 39.3266 105.716 39.3838 105.83C39.4433 105.945 39.5234 106.03 39.6241 106.088C39.7248 106.145 39.8381 106.174 39.9639 106.174C40.1218 106.174 40.2534 106.136 40.3587 106.06C40.4662 105.982 40.536 105.875 40.5681 105.738H40.8255C40.7821 105.93 40.6848 106.084 40.5338 106.201C40.3827 106.318 40.1928 106.376 39.9639 106.376C39.7877 106.376 39.631 106.337 39.4936 106.259C39.3563 106.179 39.2488 106.067 39.171 105.923C39.0932 105.776 39.0543 105.606 39.0543 105.411Z" fill="#CD0000"/>
<path d="M38.0596 106.376C37.8445 106.376 37.6683 106.327 37.531 106.228C37.3959 106.128 37.3204 105.992 37.3044 105.82H37.5516C37.563 105.925 37.6122 106.011 37.6992 106.077C37.7884 106.141 37.9074 106.174 38.0562 106.174C38.1866 106.174 38.2884 106.143 38.3617 106.081C38.4372 106.019 38.4749 105.942 38.4749 105.851C38.4749 105.787 38.4543 105.734 38.4132 105.693C38.372 105.652 38.3193 105.62 38.2553 105.597C38.1935 105.572 38.1088 105.545 38.0012 105.518C37.8616 105.481 37.7484 105.445 37.6614 105.408C37.5744 105.371 37.5001 105.318 37.4383 105.247C37.3788 105.173 37.349 105.076 37.349 104.955C37.349 104.863 37.3765 104.779 37.4314 104.701C37.4863 104.623 37.5641 104.561 37.6648 104.516C37.7655 104.47 37.8799 104.447 38.0081 104.447C38.2095 104.447 38.372 104.498 38.4955 104.601C38.6191 104.702 38.6855 104.842 38.6946 105.02H38.4543C38.4475 104.91 38.404 104.822 38.3239 104.756C38.2461 104.687 38.1385 104.653 38.0012 104.653C37.8799 104.653 37.7815 104.681 37.706 104.739C37.6305 104.796 37.5927 104.867 37.5927 104.951C37.5927 105.025 37.6145 105.085 37.658 105.133C37.7037 105.179 37.7598 105.216 37.8262 105.243C37.8925 105.268 37.9818 105.297 38.0939 105.329C38.2289 105.366 38.3365 105.401 38.4166 105.435C38.4967 105.47 38.5653 105.52 38.6225 105.587C38.6798 105.653 38.7095 105.741 38.7118 105.851C38.7118 105.952 38.6843 106.042 38.6294 106.122C38.5745 106.2 38.4978 106.262 38.3994 106.307C38.301 106.353 38.1877 106.376 38.0596 106.376Z" fill="#CD0000"/>
<path d="M35.3347 104.89C35.3965 104.759 35.4915 104.653 35.6196 104.57C35.7501 104.488 35.9034 104.447 36.0796 104.447C36.2512 104.447 36.4046 104.487 36.5396 104.567C36.6746 104.645 36.7799 104.757 36.8554 104.903C36.9332 105.048 36.9721 105.216 36.9721 105.408C36.9721 105.6 36.9332 105.77 36.8554 105.916C36.7799 106.063 36.6735 106.176 36.5361 106.256C36.4011 106.336 36.2489 106.376 36.0796 106.376C35.9011 106.376 35.7466 106.336 35.6162 106.256C35.488 106.174 35.3942 106.067 35.3347 105.937V106.349H35.0978V103.808H35.3347V104.89ZM36.7284 105.408C36.7284 105.252 36.6975 105.119 36.6357 105.006C36.5762 104.892 36.4938 104.805 36.3885 104.746C36.2833 104.686 36.1643 104.656 36.0315 104.656C35.9034 104.656 35.7855 104.687 35.678 104.749C35.5727 104.811 35.4892 104.899 35.4274 105.013C35.3656 105.128 35.3347 105.26 35.3347 105.411C35.3347 105.563 35.3656 105.695 35.4274 105.81C35.4892 105.924 35.5727 106.012 35.678 106.074C35.7855 106.136 35.9034 106.167 36.0315 106.167C36.1643 106.167 36.2833 106.137 36.3885 106.077C36.4938 106.016 36.5762 105.928 36.6357 105.813C36.6975 105.696 36.7284 105.561 36.7284 105.408Z" fill="#CD0000"/>
<path d="M34.5493 104.474V106.349H34.309V106.019C34.254 106.136 34.1694 106.225 34.055 106.287C33.9405 106.349 33.8124 106.379 33.6705 106.379C33.4462 106.379 33.2631 106.311 33.1213 106.174C32.9794 106.034 32.9084 105.833 32.9084 105.569V104.474H33.1453V105.542C33.1453 105.746 33.1956 105.901 33.2963 106.009C33.3993 106.116 33.5389 106.17 33.7151 106.17C33.8959 106.17 34.0401 106.113 34.1476 105.998C34.2552 105.884 34.309 105.716 34.309 105.494V104.474H34.5493Z" fill="#CD0000"/>
<path d="M31.6889 106.373C31.531 106.373 31.3914 106.345 31.2701 106.29C31.1511 106.235 31.0573 106.159 30.9886 106.06C30.92 105.962 30.8834 105.852 30.8788 105.731H31.1328C31.1443 105.847 31.1958 105.95 31.2873 106.04C31.3788 106.127 31.5127 106.17 31.6889 106.17C31.8514 106.17 31.9795 106.129 32.0734 106.047C32.1695 105.962 32.2176 105.855 32.2176 105.727C32.2176 105.624 32.1912 105.542 32.1386 105.48C32.086 105.416 32.0207 105.369 31.9429 105.339C31.8651 105.307 31.7576 105.273 31.6203 105.236C31.4601 105.193 31.3331 105.151 31.2392 105.109C31.1454 105.068 31.0653 105.004 30.9989 104.917C30.9326 104.83 30.8994 104.712 30.8994 104.564C30.8994 104.44 30.9314 104.33 30.9955 104.234C31.0596 104.136 31.15 104.059 31.2667 104.004C31.3834 103.949 31.5173 103.922 31.6683 103.922C31.8903 103.922 32.0688 103.977 32.2038 104.086C32.3411 104.194 32.4201 104.334 32.4407 104.505H32.1798C32.1638 104.407 32.11 104.32 32.0185 104.244C31.9269 104.167 31.8033 104.128 31.6477 104.128C31.5035 104.128 31.3834 104.167 31.2873 104.244C31.1912 104.32 31.1431 104.424 31.1431 104.557C31.1431 104.657 31.1694 104.739 31.2221 104.8C31.2747 104.862 31.3399 104.909 31.4177 104.941C31.4978 104.973 31.6054 105.008 31.7404 105.044C31.896 105.088 32.0219 105.131 32.118 105.175C32.2141 105.216 32.2954 105.28 32.3617 105.367C32.4281 105.454 32.4613 105.571 32.4613 105.717C32.4613 105.829 32.4315 105.936 32.372 106.036C32.3125 106.137 32.2244 106.218 32.1077 106.28C31.991 106.342 31.8514 106.373 31.6889 106.373Z" fill="#CD0000"/>
<path d="M29.6456 105.95L29.2886 106.85H29.1238L29.3778 105.95H29.6456Z" fill="#CD0000"/>
<path d="M28.5147 104.677V105.841C28.5147 105.955 28.5364 106.034 28.5799 106.077C28.6234 106.121 28.7 106.143 28.8099 106.143H29.0296V106.349H28.7721C28.6028 106.349 28.4769 106.31 28.3945 106.232C28.3121 106.152 28.2709 106.021 28.2709 105.841V104.677H28.0101V104.474H28.2709V104.004H28.5147V104.474H29.0296V104.677H28.5147Z" fill="#CD0000"/>
<path d="M25.9872 105.411C25.9872 105.217 26.0261 105.048 26.104 104.903C26.1818 104.757 26.2893 104.645 26.4266 104.567C26.5639 104.487 26.7207 104.447 26.8969 104.447C27.128 104.447 27.318 104.504 27.4667 104.619C27.6178 104.733 27.715 104.889 27.7585 105.085H27.5011C27.469 104.95 27.3992 104.845 27.2917 104.77C27.1864 104.692 27.0548 104.653 26.8969 104.653C26.771 104.653 26.6578 104.681 26.5571 104.739C26.4564 104.796 26.3763 104.882 26.3168 104.996C26.2596 105.108 26.231 105.247 26.231 105.411C26.231 105.576 26.2596 105.716 26.3168 105.83C26.3763 105.945 26.4564 106.03 26.5571 106.088C26.6578 106.145 26.771 106.174 26.8969 106.174C27.0548 106.174 27.1864 106.136 27.2917 106.06C27.3992 105.982 27.469 105.875 27.5011 105.738H27.7585C27.715 105.93 27.6178 106.084 27.4667 106.201C27.3157 106.318 27.1258 106.376 26.8969 106.376C26.7207 106.376 26.5639 106.337 26.4266 106.259C26.2893 106.179 26.1818 106.067 26.104 105.923C26.0261 105.776 25.9872 105.606 25.9872 105.411Z" fill="#CD0000"/>
<path d="M25.6575 105.315C25.6575 105.398 25.6552 105.461 25.6506 105.504H24.0956C24.1025 105.646 24.1368 105.767 24.1986 105.868C24.2604 105.969 24.3416 106.045 24.4423 106.098C24.543 106.148 24.6528 106.174 24.7718 106.174C24.9274 106.174 25.0579 106.136 25.1632 106.06C25.2707 105.985 25.3417 105.883 25.376 105.755H25.63C25.5842 105.938 25.4858 106.088 25.3348 106.204C25.186 106.319 24.9984 106.376 24.7718 106.376C24.5956 106.376 24.4377 106.337 24.2981 106.259C24.1585 106.179 24.0487 106.067 23.9686 105.923C23.8908 105.776 23.8519 105.606 23.8519 105.411C23.8519 105.217 23.8908 105.046 23.9686 104.9C24.0464 104.754 24.1551 104.641 24.2947 104.564C24.4343 104.486 24.5933 104.447 24.7718 104.447C24.9503 104.447 25.1059 104.486 25.2387 104.564C25.3737 104.641 25.4767 104.747 25.5476 104.879C25.6208 105.01 25.6575 105.155 25.6575 105.315ZM25.4137 105.308C25.416 105.169 25.3874 105.05 25.3279 104.951C25.2707 104.853 25.1918 104.779 25.0911 104.728C24.9904 104.678 24.8805 104.653 24.7615 104.653C24.583 104.653 24.4308 104.71 24.305 104.824C24.1791 104.939 24.1093 105.1 24.0956 105.308H25.4137Z" fill="#CD0000"/>
<path d="M23.4176 103.808V106.349H23.1773V103.808H23.4176Z" fill="#CD0000"/>
<path d="M22.7377 105.315C22.7377 105.398 22.7354 105.461 22.7308 105.504H21.1758C21.1827 105.646 21.217 105.767 21.2788 105.868C21.3406 105.969 21.4218 106.045 21.5225 106.098C21.6232 106.148 21.733 106.174 21.852 106.174C22.0076 106.174 22.1381 106.136 22.2434 106.06C22.3509 105.985 22.4219 105.883 22.4562 105.755H22.7102C22.6644 105.938 22.566 106.088 22.415 106.204C22.2662 106.319 22.0786 106.376 21.852 106.376C21.6758 106.376 21.5179 106.337 21.3783 106.259C21.2387 106.179 21.1289 106.067 21.0488 105.923C20.971 105.776 20.9321 105.606 20.9321 105.411C20.9321 105.217 20.971 105.046 21.0488 104.9C21.1266 104.754 21.2353 104.641 21.3749 104.564C21.5145 104.486 21.6735 104.447 21.852 104.447C22.0305 104.447 22.1861 104.486 22.3189 104.564C22.4539 104.641 22.5569 104.747 22.6278 104.879C22.701 105.01 22.7377 105.155 22.7377 105.315ZM22.4939 105.308C22.4962 105.169 22.4676 105.05 22.4081 104.951C22.3509 104.853 22.272 104.779 22.1713 104.728C22.0706 104.678 21.9607 104.653 21.8417 104.653C21.6632 104.653 21.511 104.71 21.3852 104.824C21.2593 104.939 21.1895 105.1 21.1758 105.308H22.4939Z" fill="#CD0000"/>
<path d="M19.8052 106.373C19.6473 106.373 19.5077 106.345 19.3864 106.29C19.2674 106.235 19.1736 106.159 19.105 106.06C19.0363 105.962 18.9997 105.852 18.9951 105.731H19.2491C19.2606 105.847 19.3121 105.95 19.4036 106.04C19.4951 106.127 19.629 106.17 19.8052 106.17C19.9677 106.17 20.0959 106.129 20.1897 106.047C20.2858 105.962 20.3339 105.855 20.3339 105.727C20.3339 105.624 20.3075 105.542 20.2549 105.48C20.2023 105.416 20.1371 105.369 20.0593 105.339C19.9814 105.307 19.8739 105.273 19.7366 105.236C19.5764 105.193 19.4494 105.151 19.3555 105.109C19.2617 105.068 19.1816 105.004 19.1153 104.917C19.0489 104.83 19.0157 104.712 19.0157 104.564C19.0157 104.44 19.0478 104.33 19.1118 104.234C19.1759 104.136 19.2663 104.059 19.383 104.004C19.4997 103.949 19.6336 103.922 19.7846 103.922C20.0066 103.922 20.1851 103.977 20.3201 104.086C20.4574 104.194 20.5364 104.334 20.557 104.505H20.2961C20.2801 104.407 20.2263 104.32 20.1348 104.244C20.0432 104.167 19.9197 104.128 19.764 104.128C19.6199 104.128 19.4997 104.167 19.4036 104.244C19.3075 104.32 19.2594 104.424 19.2594 104.557C19.2594 104.657 19.2858 104.739 19.3384 104.8C19.391 104.862 19.4562 104.909 19.534 104.941C19.6141 104.973 19.7217 105.008 19.8567 105.044C20.0123 105.088 20.1382 105.131 20.2343 105.175C20.3304 105.216 20.4117 105.28 20.478 105.367C20.5444 105.454 20.5776 105.571 20.5776 105.717C20.5776 105.829 20.5478 105.936 20.4883 106.036C20.4288 106.137 20.3407 106.218 20.224 106.28C20.1073 106.342 19.9677 106.373 19.8052 106.373Z" fill="#CD0000"/>
</svg>
