<svg width="146" height="146" viewBox="0 0 146 146" fill="none" xmlns="http://www.w3.org/2000/svg">
<circle cx="73" cy="73" r="73" fill="#EB0029"/>
<path d="M108 52.875V70.7249C108 75.1699 106.53 78.915 103.905 81.505C101.315 84.13 97.57 85.5999 93.125 85.5999V91.9349C93.125 94.3149 90.465 95.75 88.505 94.42L85.11 92.1799C85.425 91.0949 85.565 89.9049 85.565 88.6449V74.4001C85.565 67.2601 80.805 62.5 73.665 62.5H49.9C49.41 62.5 48.955 62.5351 48.5 62.5701V52.875C48.5 43.95 54.45 38 63.375 38H93.125C102.05 38 108 43.95 108 52.875Z" stroke="white" stroke-width="3" stroke-miterlimit="10" stroke-linecap="round" stroke-linejoin="round"/>
<path d="M85.565 74.4001V88.6449C85.565 89.9049 85.425 91.0949 85.11 92.1799C83.815 97.3249 79.545 100.545 73.665 100.545H64.145L53.575 107.58C52 108.665 49.9 107.51 49.9 105.62V100.545C46.33 100.545 43.355 99.355 41.29 97.29C39.19 95.19 38 92.2149 38 88.6449V74.4001C38 67.7501 42.13 63.1651 48.5 62.5701C48.955 62.5351 49.41 62.5 49.9 62.5H73.665C80.805 62.5 85.565 67.2601 85.565 74.4001Z" stroke="white" stroke-width="3" stroke-miterlimit="10" stroke-linecap="round" stroke-linejoin="round"/>
</svg>
